{
  "accessors": [
    {
      "bufferView": 2,
      "componentType": 5126,
      "count": 8950,
      "max": [
        0.5703060030937195,
        -0.8572239875793457,
        0.6565870046615601
      ],
      "min": [
        -0.5703060030937195,
        -1.0,
        -0.6565870046615601
      ],
      "type": "VEC3"
    },
    {
      "bufferView": 2,
      "byteOffset": 107400,
      "componentType": 5126,
      "count": 8950,
      "max": [
        0.9999725222587585,
        1.0,
        0.9998534917831421
      ],
      "min": [
        -0.9999725222587585,
        -1.0,
        -0.999853789806366
      ],
      "type": "VEC3"
    },
    {
      "bufferView": 3,
      "componentType": 5126,
      "count": 8950,
      "max": [
        1.0,
        0.999963104724884,
        0.9998210072517395,
        1.0
      ],
      "min": [
        -0.9999706745147705,
        -0.9999613761901855,
        -0.9991611838340759,
        -1.0
      ],
      "type": "VEC4"
    },
    {
      "bufferView": 1,
      "componentType": 5126,
      "count": 8950,
      "max": [
        0.9910740256309509,
        0.9905830025672913
      ],
      "min": [
        0.01251010037958622,
        0.008392210118472576
      ],
      "type": "VEC2"
    },
    {
      "bufferView": 0,
      "componentType": 5125,
      "count": 51336,
      "type": "SCALAR"
    },
    {
      "bufferView": 2,
      "byteOffset": 214800,
      "componentType": 5126,
      "count": 9084,
      "max": [
        0.5640580058097839,
        0.04677160084247589,
        0.2244109958410263
      ],
      "min": [
        -0.5640580058097839,
        -0.8576250076293945,
        -0.22456899285316467
      ],
      "type": "VEC3"
    },
    {
      "bufferView": 2,
      "byteOffset": 323808,
      "componentType": 5126,
      "count": 9084,
      "max": [
        0.9999940991401672,
        0.9999989867210388,
        0.999997615814209
      ],
      "min": [
        -0.9999940991401672,
        -0.9999970197677612,
        -0.9999771118164063
      ],
      "type": "VEC3"
    },
    {
      "bufferView": 3,
      "byteOffset": 143200,
      "componentType": 5126,
      "count": 9084,
      "max": [
        1.0,
        0.9990819692611694,
        0.9999963641166687,
        1.0
      ],
      "min": [
        -1.0,
        -0.9990812540054321,
        -0.9999964237213135,
        1.0
      ],
      "type": "VEC4"
    },
    {
      "bufferView": 1,
      "byteOffset": 71600,
      "componentType": 5126,
      "count": 9084,
      "max": [
        0.9930300116539001,
        0.9880099892616272
      ],
      "min": [
        0.006970409769564867,
        0.011364400386810303
      ],
      "type": "VEC2"
    },
    {
      "bufferView": 0,
      "byteOffset": 205344,
      "componentType": 5125,
      "count": 51888,
      "type": "SCALAR"
    },
    {
      "bufferView": 2,
      "byteOffset": 432816,
      "componentType": 5126,
      "count": 11538,
      "max": [
        0.5216190218925476,
        1.0,
        0.4736970067024231
      ],
      "min": [
        -0.5216190218925476,
        -0.04323799908161163,
        -0.44418200850486755
      ],
      "type": "VEC3"
    },
    {
      "bufferView": 2,
      "byteOffset": 571272,
      "componentType": 5126,
      "count": 11538,
      "max": [
        0.9999070167541504,
        0.9999708533287048,
        1.0
      ],
      "min": [
        -0.9999070167541504,
        -0.9999709725379944,
        -1.0
      ],
      "type": "VEC3"
    },
    {
      "bufferView": 3,
      "byteOffset": 288544,
      "componentType": 5126,
      "count": 11538,
      "max": [
        1.0,
        0.9999970197677612,
        0.9997611045837402,
        1.0
      ],
      "min": [
        -1.0,
        -0.9991797208786011,
        -0.9997428059577942,
        1.0
      ],
      "type": "VEC4"
    },
    {
      "bufferView": 1,
      "byteOffset": 144272,
      "componentType": 5126,
      "count": 11538,
      "max": [
        0.9960119724273682,
        0.9932069778442383
      ],
      "min": [
        0.0034243499394506216,
        0.0015426899772137403
      ],
      "type": "VEC2"
    },
    {
      "bufferView": 0,
      "byteOffset": 412896,
      "componentType": 5125,
      "count": 66048,
      "type": "SCALAR"
    }
  ],
  "asset": {
    "extras": {
      "author": "TobyArt (https://sketchfab.com/TobyArt)",
      "license": "CC-BY-4.0 (http://creativecommons.org/licenses/by/4.0/)",
      "source": "https://sketchfab.com/3d-models/semi-organic-meetmat-2-entry-300373a4bb704071ae9ac9f72acf33d5",
      "title": "Semi-Organic • MeetMat 2 Entry"
    },
    "generator": "Sketchfab-12.68.0",
    "version": "2.0"
  },
  "bufferViews": [
    {
      "buffer": 0,
      "byteLength": 677088,
      "name": "floatBufferViews",
      "target": 34963
    },
    {
      "buffer": 0,
      "byteLength": 236576,
      "byteOffset": 677088,
      "byteStride": 8,
      "name": "floatBufferViews",
      "target": 34962
    },
    {
      "buffer": 0,
      "byteLength": 709728,
      "byteOffset": 913664,
      "byteStride": 12,
      "name": "floatBufferViews",
      "target": 34962
    },
    {
      "buffer": 0,
      "byteLength": 473152,
      "byteOffset": 1623392,
      "byteStride": 16,
      "name": "floatBufferViews",
      "target": 34962
    }
  ],
  "buffers": [
    {
      "byteLength": 2096544,
      "uri": "scene.bin"
    }
  ],
  "images": [
    {
      "uri": "textures/01_Head_baseColor.png"
    },
    {
      "uri": "textures/01_Head_metallicRoughness.png"
    },
    {
      "uri": "textures/01_Head_emissive.jpeg"
    },
    {
      "uri": "textures/01_Head_normal.png"
    },
    {
      "uri": "textures/02_Body_baseColor.png"
    },
    {
      "uri": "textures/02_Body_metallicRoughness.png"
    },
    {
      "uri": "textures/02_Body_emissive.jpeg"
    },
    {
      "uri": "textures/02_Body_normal.png"
    },
    {
      "uri": "textures/03_Base_baseColor.jpeg"
    },
    {
      "uri": "textures/03_Base_metallicRoughness.png"
    },
    {
      "uri": "textures/03_Base_emissive.jpeg"
    },
    {
      "uri": "textures/03_Base_normal.png"
    }
  ],
  "materials": [
    {
      "doubleSided": true,
      "emissiveFactor": [
        1.0,
        1.0,
        1.0
      ],
      "emissiveTexture": {
        "index": 2
      },
      "name": "01_Head",
      "normalTexture": {
        "index": 3
      },
      "pbrMetallicRoughness": {
        "baseColorTexture": {
          "index": 0
        },
        "metallicRoughnessTexture": {
          "index": 1
        }
      }
    },
    {
      "doubleSided": true,
      "emissiveFactor": [
        1.0,
        1.0,
        1.0
      ],
      "emissiveTexture": {
        "index": 6
      },
      "name": "02_Body",
      "normalTexture": {
        "index": 7
      },
      "pbrMetallicRoughness": {
        "baseColorTexture": {
          "index": 4
        },
        "metallicRoughnessTexture": {
          "index": 5
        }
      }
    },
    {
      "doubleSided": true,
      "emissiveFactor": [
        1.0,
        1.0,
        1.0
      ],
      "emissiveTexture": {
        "index": 10
      },
      "name": "03_Base",
      "normalTexture": {
        "index": 11
      },
      "pbrMetallicRoughness": {
        "baseColorTexture": {
          "index": 8
        },
        "metallicRoughnessTexture": {
          "index": 9
        }
      }
    }
  ],
  "meshes": [
    {
      "name": "defaultMaterial",
      "primitives": [
        {
          "attributes": {
            "NORMAL": 1,
            "POSITION": 0,
            "TANGENT": 2,
            "TEXCOORD_0": 3
          },
          "indices": 4,
          "material": 2,
          "mode": 4
        }
      ]
    },
    {
      "name": "defaultMaterial",
      "primitives": [
        {
          "attributes": {
            "NORMAL": 6,
            "POSITION": 5,
            "TANGENT": 7,
            "TEXCOORD_0": 8
          },
          "indices": 9,
          "material": 1,
          "mode": 4
        }
      ]
    },
    {
      "name": "defaultMaterial",
      "primitives": [
        {
          "attributes": {
            "NORMAL": 11,
            "POSITION": 10,
            "TANGENT": 12,
            "TEXCOORD_0": 13
          },
          "indices": 14,
          "material": 0,
          "mode": 4
        }
      ]
    }
  ],
  "nodes": [
    {
      "children": [
        1
      ],
      "matrix": [
        1.0589524507522583,
        0.0,
        0.0,
        0.0,
        0.0,
        2.3513467856167887e-16,
        -1.0589524507522583,
        0.0,
        0.0,
        1.0589524507522583,
        2.3513467856167887e-16,
        0.0,
        0.0,
        0.0,
        0.0,
        1.0
      ],
      "name": "Sketchfab_model"
    },
    {
      "children": [
        2,
        4,
        6
      ],
      "matrix": [
        1.0,
        0.0,
        0.0,
        0.0,
        0.0,
        -4.371139006309477e-08,
        0.999999999999999,
        0.0,
        0.0,
        -0.999999999999999,
        -4.371139006309477e-08,
        0.0,
        0.0,
        0.0,
        0.0,
        1.0
      ],
      "name": "Collada visual scene group"
    },
    {
      "children": [
        3
      ],
      "name": "Mesh_03_Base"
    },
    {
      "mesh": 0,
      "name": "defaultMaterial"
    },
    {
      "children": [
        5
      ],
      "name": "Mesh_02_Body"
    },
    {
      "mesh": 1,
      "name": "defaultMaterial"
    },
    {
      "children": [
        7
      ],
      "name": "Mesh_01_Head"
    },
    {
      "mesh": 2,
      "name": "defaultMaterial"
    }
  ],
  "samplers": [
    {
      "magFilter": 9729,
      "minFilter": 9987,
      "wrapS": 10497,
      "wrapT": 10497
    }
  ],
  "scene": 0,
  "scenes": [
    {
      "name": "Sketchfab_Scene",
      "nodes": [
        0
      ]
    }
  ],
  "textures": [
    {
      "sampler": 0,
      "source": 0
    },
    {
      "sampler": 0,
      "source": 1
    },
    {
      "sampler": 0,
      "source": 2
    },
    {
      "sampler": 0,
      "source": 3
    },
    {
      "sampler": 0,
      "source": 4
    },
    {
      "sampler": 0,
      "source": 5
    },
    {
      "sampler": 0,
      "source": 6
    },
    {
      "sampler": 0,
      "source": 7
    },
    {
      "sampler": 0,
      "source": 8
    },
    {
      "sampler": 0,
      "source": 9
    },
    {
      "sampler": 0,
      "source": 10
    },
    {
      "sampler": 0,
      "source": 11
    }
  ]
}
